<svg width="356" height="76" xmlns="http://www.w3.org/2000/svg" data-name="Layer 1">
 <g id="Layer_1">
  <title>Layer 1</title>

  <path fill="#f4f4f4" d="m0,39.06407l0,-36.364l12.287,0l8.452,20.597l0.426,0l8.451,-20.597l12.287,0l0,36.364l-9.659,0l0,-21.023l-0.284,0l-8.096,20.739l-5.824,0l-8.097,-20.881l-0.284,0l0,21.165l-9.659,0zm180.114,-13.637l0,2.273l-24.361,0l0,-5.398l15.341,0a4.146,4.146 0 0 0 -0.197,-1.231a3.616,3.616 0 0 0 -0.398,-0.837a4.014,4.014 0 0 0 -1.545,-1.403a4.453,4.453 0 0 0 -1.596,-0.474a5.503,5.503 0 0 0 -0.597,-0.032a4.863,4.863 0 0 0 -1.666,0.282a4.557,4.557 0 0 0 -0.518,0.224a4.127,4.127 0 0 0 -1.589,1.394q-0.595,0.888 -0.63,2.077l0,5.824a5.36,5.36 0 0 0 0.165,1.352a4.491,4.491 0 0 0 0.385,0.992a3.992,3.992 0 0 0 1.581,1.616a4.346,4.346 0 0 0 1.333,0.481a6.059,6.059 0 0 0 1.152,0.105a6.277,6.277 0 0 0 1.139,-0.1a5.187,5.187 0 0 0 0.717,-0.185q0.843,-0.284 1.447,-0.825a3.25,3.25 0 0 0 0.888,-1.305l8.949,0a10.44,10.44 0 0 1 -1.273,3.622a9.827,9.827 0 0 1 -0.911,1.305a10.693,10.693 0 0 1 -3.198,2.595a13.376,13.376 0 0 1 -1.357,0.637a15.126,15.126 0 0 1 -3.277,0.893q-1.564,0.252 -3.337,0.252a19.087,19.087 0 0 1 -3.589,-0.321a13.849,13.849 0 0 1 -3.93,-1.357a11.559,11.559 0 0 1 -4.847,-4.83a13.746,13.746 0 0 1 -1.372,-3.941q-0.323,-1.681 -0.324,-3.599a21.765,21.765 0 0 1 0,-0.015a17.757,17.757 0 0 1 0.374,-3.727a13.723,13.723 0 0 1 1.33,-3.659a12.182,12.182 0 0 1 4.812,-4.918a13.36,13.36 0 0 1 4.44,-1.531a17.738,17.738 0 0 1 2.893,-0.227a17.203,17.203 0 0 1 3.204,0.287a13.893,13.893 0 0 1 2.389,0.672a11.832,11.832 0 0 1 3.998,2.499a11.468,11.468 0 0 1 0.281,0.279a12.103,12.103 0 0 1 2.415,3.621a14.252,14.252 0 0 1 0.32,0.792a15.234,15.234 0 0 1 0.812,3.403a19.633,19.633 0 0 1 0.147,2.438zm-78.48,-1.704l0,15.341l-9.802,0l0,-36.364l9.446,0l0,14.276l0.285,0a8.42,8.42 0 0 1 1.528,-2.696a7.805,7.805 0 0 1 1.543,-1.379q2.149,-1.465 5.167,-1.465a10.735,10.735 0 0 1 2.627,0.308a8.563,8.563 0 0 1 2.407,1.006a8.928,8.928 0 0 1 3.32,3.622q1.163,2.274 1.163,5.203a14.838,14.838 0 0 1 0,0.088l0,17.401l-9.801,0l0,-15.341a7.858,7.858 0 0 0 0,-0.069q0,-1.585 -0.646,-2.629a3.526,3.526 0 0 0 -0.357,-0.481a3.318,3.318 0 0 0 -1.836,-1.047a5.026,5.026 0 0 0 -1.067,-0.107a4.573,4.573 0 0 0 -1.117,0.131a3.696,3.696 0 0 0 -0.969,0.393q-0.897,0.524 -1.385,1.492a4.525,4.525 0 0 0 -0.394,1.172q-0.098,0.5 -0.111,1.069a7.574,7.574 0 0 0 -0.001,0.076zm-13.85,-0.568l-9.091,0q-0.195,-2.149 -1.234,-3.276a3.438,3.438 0 0 0 -2.508,-1.125a4.606,4.606 0 0 0 -0.164,-0.003q-1.278,0 -2.237,0.737q-0.872,0.67 -1.391,1.956a7.243,7.243 0 0 0 -0.101,0.263q-0.414,1.153 -0.506,2.761a16.77,16.77 0 0 0 -0.026,0.959a15.526,15.526 0 0 0 0.073,1.557q0.124,1.231 0.459,2.163q0.448,1.247 1.198,1.967a3.535,3.535 0 0 0 0.294,0.253a3.556,3.556 0 0 0 2.177,0.736a4.397,4.397 0 0 0 0.06,0a3.942,3.942 0 0 0 1.11,-0.151a3.376,3.376 0 0 0 0.808,-0.355q0.834,-0.506 1.358,-1.491q0.524,-0.986 0.63,-2.406l9.091,0a14.101,14.101 0 0 1 -0.414,3.273a11.186,11.186 0 0 1 -1.237,3.004q-1.598,2.672 -4.519,4.128q-2.88,1.435 -6.857,1.455a22.379,22.379 0 0 1 -0.112,0.001a18.646,18.646 0 0 1 -3.609,-0.332a13.454,13.454 0 0 1 -3.991,-1.435a12.018,12.018 0 0 1 -4.847,-4.936a14.235,14.235 0 0 1 -1.487,-4.6a18.474,18.474 0 0 1 -0.2,-2.76a17.626,17.626 0 0 1 0.409,-3.877a13.845,13.845 0 0 1 1.278,-3.482a12.018,12.018 0 0 1 4.847,-4.937a13.495,13.495 0 0 1 4.082,-1.452a18.732,18.732 0 0 1 3.518,-0.314a18.788,18.788 0 0 1 3.305,0.277a13.639,13.639 0 0 1 3.646,1.17a11.12,11.12 0 0 1 3.416,2.552a10.553,10.553 0 0 1 1.139,1.532a11.023,11.023 0 0 1 1.497,4.262a14.208,14.208 0 0 1 0.136,1.926zm51.421,-2.699l0,-0.071q0,-1.066 -0.817,-1.634a3.028,3.028 0 0 0 -1.032,-0.451q-0.484,-0.117 -1.063,-0.117a5.254,5.254 0 0 0 -0.96,0.083q-0.55,0.102 -0.993,0.331a2.941,2.941 0 0 0 -0.329,0.198q-0.879,0.613 -1.056,1.874l-9.02,0a9.298,9.298 0 0 1 1.589,-4.59a8.982,8.982 0 0 1 2.406,-2.396a11.992,11.992 0 0 1 1.722,-0.978q2.717,-1.269 6.783,-1.269a21.558,21.558 0 0 1 2.778,0.171a16.178,16.178 0 0 1 2.477,0.512q2.326,0.684 3.96,1.9a9.112,9.112 0 0 1 1.667,1.588a7.868,7.868 0 0 1 0.828,1.253q0.861,1.625 0.861,3.525l0,18.679l-9.162,0l0,-3.836l-0.213,0a8.857,8.857 0 0 1 -0.966,1.457a7.094,7.094 0 0 1 -1.014,1.011a7.414,7.414 0 0 1 -2.646,1.368a10.869,10.869 0 0 1 -1.967,0.366a13.514,13.514 0 0 1 -1.291,0.06a13.503,13.503 0 0 1 -2.312,-0.189a10.179,10.179 0 0 1 -2.295,-0.672q-1.998,-0.862 -3.134,-2.619a6.736,6.736 0 0 1 -0.883,-2.121q-0.206,-0.869 -0.245,-1.88a12.396,12.396 0 0 1 -0.009,-0.474q0,-2.237 0.764,-3.826q0.763,-1.589 2.13,-2.601a9.628,9.628 0 0 1 2.299,-1.246a11.56,11.56 0 0 1 0.889,-0.299q1.82,-0.533 3.933,-0.693q2.239,-0.173 3.622,-0.423a16.989,16.989 0 0 0 0.062,-0.012q1.394,-0.257 2.015,-0.728a1.569,1.569 0 0 0 0.446,-0.509q0.165,-0.307 0.175,-0.691a1.926,1.926 0 0 0 0.001,-0.051zm44.886,-17.756l9.801,0l0,36.364l-9.801,0l0,-36.364zm-127.557,36.364l-9.801,0l0,-27.273l9.801,0l0,27.273zm-8.31,-31.428a4.867,4.867 0 0 0 3.427,1.314a4.813,4.813 0 0 0 3.4,-1.314a5.372,5.372 0 0 0 0.13,-0.124a4.137,4.137 0 0 0 1.282,-3.036a4.139,4.139 0 0 0 -0.387,-1.788a4.496,4.496 0 0 0 -1.025,-1.373a4.836,4.836 0 0 0 -3.417,-1.314a4.845,4.845 0 0 0 -3.41,1.314a5.391,5.391 0 0 0 -0.13,0.124a4.124,4.124 0 0 0 -1.29,3.037a4.113,4.113 0 0 0 0.401,1.811a4.51,4.51 0 0 0 1.019,1.349zm91.052,21.769l0,-2.273a11.743,11.743 0 0 1 -0.611,0.229a13.257,13.257 0 0 1 -0.215,0.073q-0.435,0.142 -0.923,0.266a18.568,18.568 0 0 1 -0.763,0.176a21.272,21.272 0 0 1 -0.267,0.055a25.42,25.42 0 0 1 -0.837,0.15a28.272,28.272 0 0 1 -0.291,0.045q-0.87,0.136 -1.495,0.402a3.819,3.819 0 0 0 -0.36,0.175a3.359,3.359 0 0 0 -0.554,0.38a2.431,2.431 0 0 0 -0.511,0.597a2.449,2.449 0 0 0 -0.347,1.265a2.906,2.906 0 0 0 0,0.022q0,1.136 0.799,1.74a2.893,2.893 0 0 0 1.131,0.51q0.421,0.094 0.911,0.094a4.899,4.899 0 0 0 2.104,-0.462a4.052,4.052 0 0 0 1.607,-1.332a3.305,3.305 0 0 0 0.571,-1.434a4.402,4.402 0 0 0 0.051,-0.678z" class="cls-1"/>
  <path fill="#f4f4f4" d="m292.51071,75.61186l-9.801,0l0,-27.273l9.304,0l0,5.185l0.284,0a8.294,8.294 0 0 1 1.525,-2.766a7.794,7.794 0 0 1 1.387,-1.283a7.839,7.839 0 0 1 3.858,-1.438a10.047,10.047 0 0 1 1.043,-0.053q2.876,0 4.954,1.518a6.076,6.076 0 0 1 2.503,4.022l0.284,0a6.975,6.975 0 0 1 2.948,-4.022a8.901,8.901 0 0 1 4.09,-1.456a11.27,11.27 0 0 1 1.201,-0.062q3.924,0 6.365,2.521a8.475,8.475 0 0 1 2.227,4.371a12.153,12.153 0 0 1 0.215,2.341l0,18.395l-9.801,0l0,-15.909a5.725,5.725 0 0 0 -0.107,-1.139q-0.138,-0.683 -0.458,-1.212a3.16,3.16 0 0 0 -0.341,-0.464q-0.905,-1.021 -2.432,-1.021q-1.51,0 -2.389,1.021q-0.776,0.902 -0.866,2.405a6.787,6.787 0 0 0 -0.012,0.41l0,15.909l-9.375,0l0,-15.909a5.725,5.725 0 0 0 -0.107,-1.139q-0.139,-0.683 -0.458,-1.212a3.16,3.16 0 0 0 -0.341,-0.464q-0.906,-1.021 -2.433,-1.021a3.72,3.72 0 0 0 -0.858,0.095a2.865,2.865 0 0 0 -0.882,0.367a2.945,2.945 0 0 0 -0.987,1.051a3.657,3.657 0 0 0 -0.14,0.272a4.131,4.131 0 0 0 -0.312,1.007q-0.082,0.455 -0.087,0.972a7.002,7.002 0 0 0 -0.001,0.072l0,15.909zm63.637,-13.637l0,2.273l-24.361,0l0,-5.398l15.341,0a4.146,4.146 0 0 0 -0.197,-1.231a3.616,3.616 0 0 0 -0.398,-0.837a4.014,4.014 0 0 0 -1.545,-1.403a4.453,4.453 0 0 0 -1.596,-0.474a5.503,5.503 0 0 0 -0.597,-0.032a4.863,4.863 0 0 0 -1.666,0.282a4.557,4.557 0 0 0 -0.517,0.224a4.127,4.127 0 0 0 -1.59,1.394q-0.594,0.888 -0.63,2.077l0,5.824a5.36,5.36 0 0 0 0.165,1.352a4.491,4.491 0 0 0 0.385,0.992a3.992,3.992 0 0 0 1.581,1.616a4.346,4.346 0 0 0 1.333,0.481a6.059,6.059 0 0 0 1.153,0.105a6.277,6.277 0 0 0 1.138,-0.1a5.187,5.187 0 0 0 0.717,-0.184q0.843,-0.285 1.447,-0.826a3.25,3.25 0 0 0 0.888,-1.305l8.949,0a10.44,10.44 0 0 1 -1.273,3.622a9.827,9.827 0 0 1 -0.911,1.305a10.693,10.693 0 0 1 -3.198,2.595a13.376,13.376 0 0 1 -1.357,0.637a15.126,15.126 0 0 1 -3.277,0.893q-1.564,0.252 -3.337,0.252a19.087,19.087 0 0 1 -3.589,-0.321a13.849,13.849 0 0 1 -3.93,-1.357a11.559,11.559 0 0 1 -4.847,-4.83a13.746,13.746 0 0 1 -1.371,-3.941q-0.324,-1.681 -0.325,-3.599a21.765,21.765 0 0 1 0,-0.015a17.757,17.757 0 0 1 0.375,-3.727a13.723,13.723 0 0 1 1.33,-3.659a12.182,12.182 0 0 1 4.811,-4.918a13.36,13.36 0 0 1 4.441,-1.531a17.738,17.738 0 0 1 2.892,-0.227a17.203,17.203 0 0 1 3.204,0.287a13.893,13.893 0 0 1 2.389,0.672a11.832,11.832 0 0 1 3.998,2.499a11.468,11.468 0 0 1 0.282,0.279a12.103,12.103 0 0 1 2.414,3.621a14.252,14.252 0 0 1 0.32,0.792a15.234,15.234 0 0 1 0.812,3.403a19.633,19.633 0 0 1 0.147,2.438zm-155.611,-12.713l-7.955,26.35l-10.653,0l12.003,-36.364l13.494,0l12.003,36.364l-10.653,0l-7.955,-26.35l-0.284,0zm37.855,3.835l0.142,0l0,-13.849l9.801,0l0,36.364l-9.73,0l0,-4.475l-0.213,0a7.782,7.782 0 0 1 -1.625,2.477a7.524,7.524 0 0 1 -2.279,1.6a8.693,8.693 0 0 1 -0.277,0.122a7.973,7.973 0 0 1 -2.025,0.54a10.357,10.357 0 0 1 -1.393,0.091q-2.912,0 -5.354,-1.527a9.642,9.642 0 0 1 -2.755,-2.645a13.075,13.075 0 0 1 -1.151,-1.989a14.031,14.031 0 0 1 -1.001,-3.029q-0.319,-1.475 -0.419,-3.191a27.823,27.823 0 0 1 -0.045,-1.611q0,-3.569 0.803,-6.173a12.295,12.295 0 0 1 0.733,-1.852a12.776,12.776 0 0 1 1.457,-2.313a9.235,9.235 0 0 1 2.52,-2.215q2.442,-1.438 5.141,-1.438a9.902,9.902 0 0 1 1.788,0.154a7.411,7.411 0 0 1 1.763,0.547a7.878,7.878 0 0 1 1.901,1.215a7.135,7.135 0 0 1 0.656,0.649a8.34,8.34 0 0 1 1.562,2.548zm29.83,3.907l0,-0.071q0,-1.066 -0.817,-1.634a3.028,3.028 0 0 0 -1.032,-0.451q-0.484,-0.117 -1.063,-0.117a5.254,5.254 0 0 0 -0.96,0.083q-0.55,0.102 -0.992,0.331a2.941,2.941 0 0 0 -0.33,0.199q-0.879,0.612 -1.056,1.873l-9.02,0a9.298,9.298 0 0 1 1.589,-4.59a8.982,8.982 0 0 1 2.406,-2.396a11.992,11.992 0 0 1 1.722,-0.978q2.717,-1.269 6.783,-1.269a21.558,21.558 0 0 1 2.778,0.171a16.178,16.178 0 0 1 2.477,0.512q2.326,0.684 3.96,1.9a9.112,9.112 0 0 1 1.667,1.589a7.868,7.868 0 0 1 0.828,1.252q0.861,1.625 0.861,3.525l0,18.679l-9.162,0l0,-3.836l-0.213,0a8.857,8.857 0 0 1 -0.966,1.457a7.094,7.094 0 0 1 -1.014,1.011a7.414,7.414 0 0 1 -2.646,1.368a10.869,10.869 0 0 1 -1.967,0.366a13.514,13.514 0 0 1 -1.291,0.06a13.503,13.503 0 0 1 -2.312,-0.189a10.179,10.179 0 0 1 -2.295,-0.672q-1.998,-0.862 -3.134,-2.619a6.736,6.736 0 0 1 -0.883,-2.121q-0.206,-0.869 -0.245,-1.88a12.396,12.396 0 0 1 -0.009,-0.474q0,-2.237 0.764,-3.826q0.763,-1.589 2.131,-2.601a9.628,9.628 0 0 1 2.298,-1.246a11.56,11.56 0 0 1 0.889,-0.299q1.82,-0.533 3.933,-0.693q2.239,-0.173 3.622,-0.423a16.989,16.989 0 0 0 0.062,-0.012q1.394,-0.257 2.015,-0.728a1.569,1.569 0 0 0 0.446,-0.509q0.165,-0.307 0.175,-0.691a1.926,1.926 0 0 0 0.001,-0.051zm-77.628,11.647l0,-7.386l20.028,0l0,7.386l-20.028,0zm43.821,-0.213a3.845,3.845 0 0 0 1.29,-0.21a3.411,3.411 0 0 0 1.027,-0.58q0.968,-0.79 1.491,-2.237q0.524,-1.447 0.524,-3.436q0,-2.024 -0.524,-3.471q-0.523,-1.447 -1.491,-2.219a3.53,3.53 0 0 0 -2.016,-0.763a4.501,4.501 0 0 0 -0.301,-0.01a3.92,3.92 0 0 0 -1.214,0.181a3.335,3.335 0 0 0 -1.086,0.592q-0.949,0.772 -1.456,2.219a8.424,8.424 0 0 0 -0.359,1.457q-0.114,0.721 -0.14,1.545a15.395,15.395 0 0 0 -0.007,0.469q0,2.024 0.506,3.472a6.07,6.07 0 0 0 0.485,1.064q0.369,0.631 0.867,1.067a3.754,3.754 0 0 0 0.104,0.088a3.436,3.436 0 0 0 1.927,0.757a4.439,4.439 0 0 0 0.373,0.015zm33.878,-2.485l0,-2.273a11.743,11.743 0 0 1 -0.611,0.23a13.257,13.257 0 0 1 -0.215,0.072q-0.435,0.142 -0.923,0.266a18.568,18.568 0 0 1 -0.763,0.176a21.272,21.272 0 0 1 -0.267,0.055a25.42,25.42 0 0 1 -0.837,0.15a28.272,28.272 0 0 1 -0.291,0.045q-0.87,0.136 -1.495,0.402a3.819,3.819 0 0 0 -0.36,0.175a3.359,3.359 0 0 0 -0.554,0.38a2.431,2.431 0 0 0 -0.511,0.597a2.449,2.449 0 0 0 -0.347,1.265a2.906,2.906 0 0 0 0,0.022q0,1.136 0.799,1.74a2.893,2.893 0 0 0 1.131,0.51q0.421,0.094 0.911,0.094a4.899,4.899 0 0 0 2.104,-0.462a4.052,4.052 0 0 0 1.607,-1.332a3.305,3.305 0 0 0 0.571,-1.434a4.402,4.402 0 0 0 0.051,-0.678z" class="cls-1"/>
 </g>

</svg>